<svg xmlns="http://www.w3.org/2000/svg" width="760" height="230" viewBox="0 0 760 230" role="img" aria-labelledby="title desc" shape-rendering="crispEdges">
  <title id="title">OB 原创像素螃蟹成长预览</title>
  <desc id="desc">依次展示空贝壳、从贝壳探头、小螃蟹，以及大螃蟹横向走路的两帧。</desc>
  <rect width="760" height="230" fill="#F4EFE4"/>
  <g id="shell">
    <path fill="#E7D7B8" d="M68 74h32v8h-32zM52 82h64v8h-64zM44 90h80v8h-80zM44 98h24v8h-24zM76 98h48v8h-48zM36 106h96v8h-96zM36 114h16v8h-16zM60 114h48v8h-48zM116 114h16v8h-16zM36 122h96v8h-96zM44 130h80v8h-80zM52 138h64v8h-64zM68 146h32v8h-32z"/>
    <path fill="#B9A47F" d="M68 66h32v8h-32zM52 74h16v8h-16zM100 74h16v8h-16zM44 82h8v8h-8zM116 82h8v8h-8zM36 90h8v8h-8zM124 90h8v8h-8zM36 98h8v8h-8zM124 98h8v8h-8zM28 106h8v8h-8zM132 106h8v8h-8zM28 114h8v8h-8zM132 114h8v8h-8zM28 122h8v8h-8zM132 122h8v8h-8zM36 130h8v8h-8zM124 130h8v8h-8zM44 138h8v8h-8zM116 138h8v8h-8zM52 146h16v8h-16zM100 146h16v8h-16zM68 154h32v8h-32z"/>
    <path fill="#C99A45" d="M68 98h8v8h-8zM52 114h8v8h-8zM108 114h8v8h-8z"/>
  </g>
  <g id="shell-peek">
    <path fill="#D96B57" d="M212 58h8v8h-8zM252 58h8v8h-8zM204 82h64v8h-64zM196 90h8v8h-8zM212 90h40v8h-40zM260 90h16v8h-16zM196 98h80v8h-80z"/>
    <path fill="#9F433A" d="M196 82h8v8h-8zM268 82h8v8h-8zM188 90h8v8h-8zM276 90h8v8h-8zM188 98h8v8h-8zM276 98h8v8h-8z"/>
    <path fill="#F3A07D" d="M204 90h8v8h-8zM252 90h8v8h-8z"/>
    <path fill="#FFF8E9" d="M212 66h8v8h-8zM252 66h8v8h-8z"/>
    <path fill="#332923" d="M212 74h8v8h-8zM252 74h8v8h-8z"/>
    <path fill="#E7D7B8" d="M204 106h64v8h-64zM196 114h24v8h-24zM228 114h48v8h-48zM188 122h96v8h-96zM196 130h80v8h-80zM204 138h64v8h-64zM220 146h32v8h-32z"/>
    <path fill="#B9A47F" d="M196 106h8v8h-8zM268 106h8v8h-8zM188 114h8v8h-8zM276 114h8v8h-8zM180 122h8v8h-8zM284 122h8v8h-8zM188 130h8v8h-8zM276 130h8v8h-8zM196 138h8v8h-8zM268 138h8v8h-8zM204 146h16v8h-16zM252 146h16v8h-16zM220 154h32v8h-32z"/>
    <path fill="#C99A45" d="M220 114h8v8h-8z"/>
  </g>
  <g id="young">
    <path fill="#D96B57" d="M364 66h8v8h-8zM404 66h8v8h-8zM340 90h16v8h-16zM372 90h32v8h-32zM420 90h16v8h-16zM332 98h32v8h-32zM372 98h8v8h-8zM396 98h8v8h-8zM412 98h40v8h-40zM340 106h16v8h-16zM364 106h48v8h-48zM420 106h16v8h-16zM348 114h16v8h-16zM372 114h32v8h-32zM412 114h16v8h-16zM348 122h16v8h-16zM372 122h32v8h-32zM412 122h16v8h-16zM356 130h64v8h-64zM348 138h16v8h-16zM372 138h32v8h-32zM412 138h16v8h-16zM340 146h16v8h-16zM372 146h32v8h-32zM420 146h16v8h-16zM332 154h16v8h-16zM372 154h32v8h-32zM428 154h16v8h-16z"/>
    <path fill="#9F433A" d="M332 90h8v8h-8zM356 90h8v8h-8zM412 90h8v8h-8zM436 90h8v8h-8zM324 98h8v8h-8zM364 98h8v8h-8zM404 98h8v8h-8zM332 106h8v8h-8zM356 106h8v8h-8zM412 106h8v8h-8zM436 106h8v8h-8zM340 138h8v8h-8zM364 138h8v8h-8zM404 138h8v8h-8zM428 138h8v8h-8zM332 146h8v8h-8zM436 146h8v8h-8zM324 154h8v8h-8zM444 154h8v8h-8zM332 162h8v8h-8zM436 162h8v8h-8z"/>
    <path fill="#F3A07D" d="M380 98h16v8h-16z"/>
    <path fill="#FFF8E9" d="M364 74h8v8h-8zM404 74h8v8h-8zM364 114h8v8h-8zM404 114h8v8h-8z"/>
    <path fill="#332923" d="M364 82h8v8h-8zM404 82h8v8h-8zM364 122h8v8h-8zM404 122h8v8h-8z"/>
  </g>
  <g id="grown-1">
    <path fill="#D96B57" d="M508 58h8v8h-8zM564 58h8v8h-8zM492 82h16v8h-16zM524 82h32v8h-32zM572 82h16v8h-16zM484 90h32v8h-32zM524 90h8v8h-8zM548 90h8v8h-8zM564 90h40v8h-40zM492 98h16v8h-16zM516 98h48v8h-48zM572 98h16v8h-16zM492 106h96v8h-96zM492 114h16v8h-16zM516 114h40v8h-40zM564 114h24v8h-24zM500 122h32v8h-32zM548 122h32v8h-32zM500 130h32v8h-32zM548 130h32v8h-32zM492 138h16v8h-16zM516 138h48v8h-48zM572 138h16v8h-16zM484 146h24v8h-24zM524 146h32v8h-32zM572 146h32v8h-32zM484 154h16v8h-16zM524 154h32v8h-32zM580 154h16v8h-16z"/>
    <path fill="#9F433A" d="M484 82h8v8h-8zM508 82h8v8h-8zM564 82h8v8h-8zM588 82h8v8h-8zM476 90h8v8h-8zM516 90h8v8h-8zM556 90h8v8h-8zM484 98h8v8h-8zM508 98h8v8h-8zM564 98h8v8h-8zM588 98h8v8h-8zM492 130h8v8h-8zM580 130h8v8h-8zM484 138h8v8h-8zM508 138h8v8h-8zM564 138h8v8h-8zM588 138h8v8h-8zM476 146h8v8h-8zM476 162h8v8h-8zM492 162h8v8h-8zM580 162h8v8h-8zM596 162h8v8h-8z"/>
    <path fill="#F3A07D" d="M532 90h16v8h-16zM508 114h8v8h-8zM556 114h8v8h-8z"/>
    <path fill="#FFF8E9" d="M508 66h8v8h-8zM564 66h8v8h-8z"/>
    <path fill="#332923" d="M508 74h8v8h-8zM564 74h8v8h-8z"/>
    <path fill="#C99A45" d="M532 122h16v8h-16zM532 130h16v8h-16z"/>
  </g>
  <g id="grown-2">
    <path fill="#D96B57" d="M660 58h8v8h-8zM716 58h8v8h-8zM644 82h16v8h-16zM676 82h32v8h-32zM724 82h16v8h-16zM636 90h32v8h-32zM676 90h8v8h-8zM700 90h8v8h-8zM716 90h40v8h-40zM644 98h16v8h-16zM668 98h48v8h-48zM724 98h16v8h-16zM644 106h96v8h-96zM644 114h16v8h-16zM668 114h40v8h-40zM716 114h24v8h-24zM652 122h32v8h-32zM700 122h32v8h-32zM652 130h32v8h-32zM700 130h32v8h-32zM644 138h16v8h-16zM668 138h48v8h-48zM724 138h16v8h-16zM636 146h24v8h-24zM676 146h32v8h-32zM724 146h32v8h-32zM644 154h16v8h-16zM676 154h32v8h-32zM724 154h16v8h-16z"/>
    <path fill="#9F433A" d="M636 82h8v8h-8zM660 82h8v8h-8zM716 82h8v8h-8zM740 82h8v8h-8zM628 90h8v8h-8zM668 90h8v8h-8zM708 90h8v8h-8zM636 98h8v8h-8zM660 98h8v8h-8zM716 98h8v8h-8zM740 98h8v8h-8zM644 130h8v8h-8zM732 130h8v8h-8zM636 138h8v8h-8zM660 138h8v8h-8zM716 138h8v8h-8zM740 138h8v8h-8zM628 146h8v8h-8zM636 162h8v8h-8zM660 162h8v8h-8zM716 162h8v8h-8zM740 162h8v8h-8z"/>
    <path fill="#F3A07D" d="M684 90h16v8h-16zM660 114h8v8h-8zM708 114h8v8h-8z"/>
    <path fill="#FFF8E9" d="M660 66h8v8h-8zM716 66h8v8h-8z"/>
    <path fill="#332923" d="M660 74h8v8h-8zM716 74h8v8h-8z"/>
    <path fill="#C99A45" d="M684 122h16v8h-16zM684 130h16v8h-16z"/>
  </g>
</svg>
